<svg width="800" height="400" viewBox="0 0 800 400" fill="none" xmlns="http://www.w3.org/2000/svg">
  <!-- Main flowing curve -->
  <path d="M50,300 C150,350 300,200 450,250 S650,350 750,200" stroke="url(#flow-gradient)" stroke-width="20" stroke-linecap="round" fill="none"/>
  
  <!-- Glowing dot at start -->
  <circle cx="50" cy="300" r="25" fill="url(#glow-gradient)"/>
  
  <!-- Geometric elements along the path -->
  <rect x="200" y="280" width="40" height="40" rx="5" fill="#6366F1" opacity="0.8" transform="rotate(15, 200, 280)"/>
  <circle cx="350" cy="240" r="15" fill="#0EA5E9" opacity="0.9"/>
  <path d="M450,250 L480,220 L490,250 L460,270 Z" fill="#8B5CF6" opacity="0.8"/>
  <rect x="600" y="300" width="50" height="50" rx="10" fill="#EC4899" opacity="0.7" transform="rotate(-15, 600, 300)"/>
  
  <!-- Glowing dot at end -->
  <circle cx="750" cy="200" r="20" fill="url(#end-glow-gradient)"/>
  
  <!-- Small particles -->
  <circle cx="150" cy="320" r="5" fill="#0EA5E9" opacity="0.6"/>
  <circle cx="250" cy="250" r="3" fill="#6366F1" opacity="0.7"/>
  <circle cx="400" cy="270" r="4" fill="#8B5CF6" opacity="0.8"/>
  <circle cx="550" cy="230" r="6" fill="#EC4899" opacity="0.7"/>
  <circle cx="650" cy="280" r="3" fill="#F472B6" opacity="0.6"/>
  
  <!-- Gradients -->
  <defs>
    <linearGradient id="flow-gradient" x1="50" y1="300" x2="750" y2="200" gradientUnits="userSpaceOnUse">
      <stop offset="0" stop-color="#0EA5E9"/>
      <stop offset="0.5" stop-color="#6366F1"/>
      <stop offset="1" stop-color="#EC4899"/>
    </linearGradient>
    
    <radialGradient id="glow-gradient" cx="50" cy="300" r="25" gradientUnits="userSpaceOnUse">
      <stop offset="0" stop-color="#0EA5E9"/>
      <stop offset="1" stop-color="#0EA5E9" stop-opacity="0"/>
    </radialGradient>
    
    <radialGradient id="end-glow-gradient" cx="750" cy="200" r="20" gradientUnits="userSpaceOnUse">
      <stop offset="0" stop-color="#EC4899"/>
      <stop offset="1" stop-color="#EC4899" stop-opacity="0"/>
    </radialGradient>
  </defs>
</svg>

